<svg xmlns="http://www.w3.org/2000/svg" width="1200" height="790" viewBox="0 0 1200 790"><rect width="1200" height="790" fill="#F3F7FA"/><text x="45" y="52" font-family="Arial,sans-serif" font-size="34" font-weight="700" fill="#0E3455">ТОП-10 по 8 критериям</text><text x="45" y="82" font-family="Arial,sans-serif" font-size="17" fill="#5A7183">Шкала 0–5. Итоговый балл учитывает разные веса критериев.</text><text x="385" y="126" font-family="Arial,sans-serif" font-size="18" font-weight="700" fill="#0E3455">C1</text><text x="473" y="126" font-family="Arial,sans-serif" font-size="18" font-weight="700" fill="#0E3455">C2</text><text x="561" y="126" font-family="Arial,sans-serif" font-size="18" font-weight="700" fill="#0E3455">C3</text><text x="649" y="126" font-family="Arial,sans-serif" font-size="18" font-weight="700" fill="#0E3455">C4</text><text x="737" y="126" font-family="Arial,sans-serif" font-size="18" font-weight="700" fill="#0E3455">C5</text><text x="825" y="126" font-family="Arial,sans-serif" font-size="18" font-weight="700" fill="#0E3455">C6</text><text x="913" y="126" font-family="Arial,sans-serif" font-size="18" font-weight="700" fill="#0E3455">C7</text><text x="1001" y="126" font-family="Arial,sans-serif" font-size="18" font-weight="700" fill="#0E3455">C8</text><text x="45" y="179" font-family="Arial,sans-serif" font-size="17" fill="#0E3455">1. Преп-Центр</text><rect x="350" y="148" width="66" height="38" rx="7" fill="#1E6E5C"/><text x="383" y="174" text-anchor="middle" font-family="Arial,sans-serif" font-size="17" font-weight="700" fill="#FFFFFF">5</text><rect x="438" y="148" width="66" height="38" rx="7" fill="#1E6E5C"/><text x="471" y="174" text-anchor="middle" font-family="Arial,sans-serif" font-size="17" font-weight="700" fill="#FFFFFF">5</text><rect x="526" y="148" width="66" height="38" rx="7" fill="#1E6E5C"/><text x="559" y="174" text-anchor="middle" font-family="Arial,sans-serif" font-size="17" font-weight="700" fill="#FFFFFF">5</text><rect x="614" y="148" width="66" height="38" rx="7" fill="#1E6E5C"/><text x="647" y="174" text-anchor="middle" font-family="Arial,sans-serif" font-size="17" font-weight="700" fill="#FFFFFF">5</text><rect x="702" y="148" width="66" height="38" rx="7" fill="#1E6E5C"/><text x="735" y="174" text-anchor="middle" font-family="Arial,sans-serif" font-size="17" font-weight="700" fill="#FFFFFF">5</text><rect x="790" y="148" width="66" height="38" rx="7" fill="#1E6E5C"/><text x="823" y="174" text-anchor="middle" font-family="Arial,sans-serif" font-size="17" font-weight="700" fill="#FFFFFF">5</text><rect x="878" y="148" width="66" height="38" rx="7" fill="#4D8D82"/><text x="911" y="174" text-anchor="middle" font-family="Arial,sans-serif" font-size="17" font-weight="700" fill="#FFFFFF">4</text><rect x="966" y="148" width="66" height="38" rx="7" fill="#1E6E5C"/><text x="999" y="174" text-anchor="middle" font-family="Arial,sans-serif" font-size="17" font-weight="700" fill="#FFFFFF">5</text><text x="45" y="231" font-family="Arial,sans-serif" font-size="17" fill="#0E3455">2. Helpberries</text><rect x="350" y="200" width="66" height="38" rx="7" fill="#1E6E5C"/><text x="383" y="226" text-anchor="middle" font-family="Arial,sans-serif" font-size="17" font-weight="700" fill="#FFFFFF">5</text><rect x="438" y="200" width="66" height="38" rx="7" fill="#1E6E5C"/><text x="471" y="226" text-anchor="middle" font-family="Arial,sans-serif" font-size="17" font-weight="700" fill="#FFFFFF">5</text><rect x="526" y="200" width="66" height="38" rx="7" fill="#4D8D82"/><text x="559" y="226" text-anchor="middle" font-family="Arial,sans-serif" font-size="17" font-weight="700" fill="#FFFFFF">4</text><rect x="614" y="200" width="66" height="38" rx="7" fill="#4D8D82"/><text x="647" y="226" text-anchor="middle" font-family="Arial,sans-serif" font-size="17" font-weight="700" fill="#FFFFFF">4</text><rect x="702" y="200" width="66" height="38" rx="7" fill="#4D8D82"/><text x="735" y="226" text-anchor="middle" font-family="Arial,sans-serif" font-size="17" font-weight="700" fill="#FFFFFF">4</text><rect x="790" y="200" width="66" height="38" rx="7" fill="#1E6E5C"/><text x="823" y="226" text-anchor="middle" font-family="Arial,sans-serif" font-size="17" font-weight="700" fill="#FFFFFF">5</text><rect x="878" y="200" width="66" height="38" rx="7" fill="#1E6E5C"/><text x="911" y="226" text-anchor="middle" font-family="Arial,sans-serif" font-size="17" font-weight="700" fill="#FFFFFF">5</text><rect x="966" y="200" width="66" height="38" rx="7" fill="#4D8D82"/><text x="999" y="226" text-anchor="middle" font-family="Arial,sans-serif" font-size="17" font-weight="700" fill="#FFFFFF">4</text><text x="45" y="283" font-family="Arial,sans-serif" font-size="17" fill="#0E3455">3. Родной Дом</text><rect x="350" y="252" width="66" height="38" rx="7" fill="#1E6E5C"/><text x="383" y="278" text-anchor="middle" font-family="Arial,sans-serif" font-size="17" font-weight="700" fill="#FFFFFF">5</text><rect x="438" y="252" width="66" height="38" rx="7" fill="#D9E4E8"/><text x="471" y="278" text-anchor="middle" font-family="Arial,sans-serif" font-size="17" font-weight="700" fill="#0E3455">1</text><rect x="526" y="252" width="66" height="38" rx="7" fill="#1E6E5C"/><text x="559" y="278" text-anchor="middle" font-family="Arial,sans-serif" font-size="17" font-weight="700" fill="#FFFFFF">5</text><rect x="614" y="252" width="66" height="38" rx="7" fill="#1E6E5C"/><text x="647" y="278" text-anchor="middle" font-family="Arial,sans-serif" font-size="17" font-weight="700" fill="#FFFFFF">5</text><rect x="702" y="252" width="66" height="38" rx="7" fill="#1E6E5C"/><text x="735" y="278" text-anchor="middle" font-family="Arial,sans-serif" font-size="17" font-weight="700" fill="#FFFFFF">5</text><rect x="790" y="252" width="66" height="38" rx="7" fill="#1E6E5C"/><text x="823" y="278" text-anchor="middle" font-family="Arial,sans-serif" font-size="17" font-weight="700" fill="#FFFFFF">5</text><rect x="878" y="252" width="66" height="38" rx="7" fill="#4D8D82"/><text x="911" y="278" text-anchor="middle" font-family="Arial,sans-serif" font-size="17" font-weight="700" fill="#FFFFFF">4</text><rect x="966" y="252" width="66" height="38" rx="7" fill="#1E6E5C"/><text x="999" y="278" text-anchor="middle" font-family="Arial,sans-serif" font-size="17" font-weight="700" fill="#FFFFFF">5</text><text x="45" y="335" font-family="Arial,sans-serif" font-size="17" fill="#0E3455">4. Нитропак</text><rect x="350" y="304" width="66" height="38" rx="7" fill="#1E6E5C"/><text x="383" y="330" text-anchor="middle" font-family="Arial,sans-serif" font-size="17" font-weight="700" fill="#FFFFFF">5</text><rect x="438" y="304" width="66" height="38" rx="7" fill="#D9E4E8"/><text x="471" y="330" text-anchor="middle" font-family="Arial,sans-serif" font-size="17" font-weight="700" fill="#0E3455">1</text><rect x="526" y="304" width="66" height="38" rx="7" fill="#1E6E5C"/><text x="559" y="330" text-anchor="middle" font-family="Arial,sans-serif" font-size="17" font-weight="700" fill="#FFFFFF">5</text><rect x="614" y="304" width="66" height="38" rx="7" fill="#1E6E5C"/><text x="647" y="330" text-anchor="middle" font-family="Arial,sans-serif" font-size="17" font-weight="700" fill="#FFFFFF">5</text><rect x="702" y="304" width="66" height="38" rx="7" fill="#1E6E5C"/><text x="735" y="330" text-anchor="middle" font-family="Arial,sans-serif" font-size="17" font-weight="700" fill="#FFFFFF">5</text><rect x="790" y="304" width="66" height="38" rx="7" fill="#4D8D82"/><text x="823" y="330" text-anchor="middle" font-family="Arial,sans-serif" font-size="17" font-weight="700" fill="#FFFFFF">4</text><rect x="878" y="304" width="66" height="38" rx="7" fill="#1E6E5C"/><text x="911" y="330" text-anchor="middle" font-family="Arial,sans-serif" font-size="17" font-weight="700" fill="#FFFFFF">5</text><rect x="966" y="304" width="66" height="38" rx="7" fill="#1E6E5C"/><text x="999" y="330" text-anchor="middle" font-family="Arial,sans-serif" font-size="17" font-weight="700" fill="#FFFFFF">5</text><text x="45" y="387" font-family="Arial,sans-serif" font-size="17" fill="#0E3455">5. ПроФасовка</text><rect x="350" y="356" width="66" height="38" rx="7" fill="#1E6E5C"/><text x="383" y="382" text-anchor="middle" font-family="Arial,sans-serif" font-size="17" font-weight="700" fill="#FFFFFF">5</text><rect x="438" y="356" width="66" height="38" rx="7" fill="#D9E4E8"/><text x="471" y="382" text-anchor="middle" font-family="Arial,sans-serif" font-size="17" font-weight="700" fill="#0E3455">1</text><rect x="526" y="356" width="66" height="38" rx="7" fill="#1E6E5C"/><text x="559" y="382" text-anchor="middle" font-family="Arial,sans-serif" font-size="17" font-weight="700" fill="#FFFFFF">5</text><rect x="614" y="356" width="66" height="38" rx="7" fill="#4D8D82"/><text x="647" y="382" text-anchor="middle" font-family="Arial,sans-serif" font-size="17" font-weight="700" fill="#FFFFFF">4</text><rect x="702" y="356" width="66" height="38" rx="7" fill="#4D8D82"/><text x="735" y="382" text-anchor="middle" font-family="Arial,sans-serif" font-size="17" font-weight="700" fill="#FFFFFF">4</text><rect x="790" y="356" width="66" height="38" rx="7" fill="#4D8D82"/><text x="823" y="382" text-anchor="middle" font-family="Arial,sans-serif" font-size="17" font-weight="700" fill="#FFFFFF">4</text><rect x="878" y="356" width="66" height="38" rx="7" fill="#8FB5BA"/><text x="911" y="382" text-anchor="middle" font-family="Arial,sans-serif" font-size="17" font-weight="700" fill="#0E3455">3</text><rect x="966" y="356" width="66" height="38" rx="7" fill="#4D8D82"/><text x="999" y="382" text-anchor="middle" font-family="Arial,sans-serif" font-size="17" font-weight="700" fill="#FFFFFF">4</text><text x="45" y="439" font-family="Arial,sans-serif" font-size="17" fill="#0E3455">6. UpMarket</text><rect x="350" y="408" width="66" height="38" rx="7" fill="#8FB5BA"/><text x="383" y="434" text-anchor="middle" font-family="Arial,sans-serif" font-size="17" font-weight="700" fill="#0E3455">3</text><rect x="438" y="408" width="66" height="38" rx="7" fill="#D9E4E8"/><text x="471" y="434" text-anchor="middle" font-family="Arial,sans-serif" font-size="17" font-weight="700" fill="#0E3455">1</text><rect x="526" y="408" width="66" height="38" rx="7" fill="#4D8D82"/><text x="559" y="434" text-anchor="middle" font-family="Arial,sans-serif" font-size="17" font-weight="700" fill="#FFFFFF">4</text><rect x="614" y="408" width="66" height="38" rx="7" fill="#1E6E5C"/><text x="647" y="434" text-anchor="middle" font-family="Arial,sans-serif" font-size="17" font-weight="700" fill="#FFFFFF">5</text><rect x="702" y="408" width="66" height="38" rx="7" fill="#1E6E5C"/><text x="735" y="434" text-anchor="middle" font-family="Arial,sans-serif" font-size="17" font-weight="700" fill="#FFFFFF">5</text><rect x="790" y="408" width="66" height="38" rx="7" fill="#1E6E5C"/><text x="823" y="434" text-anchor="middle" font-family="Arial,sans-serif" font-size="17" font-weight="700" fill="#FFFFFF">5</text><rect x="878" y="408" width="66" height="38" rx="7" fill="#1E6E5C"/><text x="911" y="434" text-anchor="middle" font-family="Arial,sans-serif" font-size="17" font-weight="700" fill="#FFFFFF">5</text><rect x="966" y="408" width="66" height="38" rx="7" fill="#4D8D82"/><text x="999" y="434" text-anchor="middle" font-family="Arial,sans-serif" font-size="17" font-weight="700" fill="#FFFFFF">4</text><text x="45" y="491" font-family="Arial,sans-serif" font-size="17" fill="#0E3455">7. Контракт Фактори</text><rect x="350" y="460" width="66" height="38" rx="7" fill="#1E6E5C"/><text x="383" y="486" text-anchor="middle" font-family="Arial,sans-serif" font-size="17" font-weight="700" fill="#FFFFFF">5</text><rect x="438" y="460" width="66" height="38" rx="7" fill="#D9E4E8"/><text x="471" y="486" text-anchor="middle" font-family="Arial,sans-serif" font-size="17" font-weight="700" fill="#0E3455">1</text><rect x="526" y="460" width="66" height="38" rx="7" fill="#4D8D82"/><text x="559" y="486" text-anchor="middle" font-family="Arial,sans-serif" font-size="17" font-weight="700" fill="#FFFFFF">4</text><rect x="614" y="460" width="66" height="38" rx="7" fill="#1E6E5C"/><text x="647" y="486" text-anchor="middle" font-family="Arial,sans-serif" font-size="17" font-weight="700" fill="#FFFFFF">5</text><rect x="702" y="460" width="66" height="38" rx="7" fill="#4D8D82"/><text x="735" y="486" text-anchor="middle" font-family="Arial,sans-serif" font-size="17" font-weight="700" fill="#FFFFFF">4</text><rect x="790" y="460" width="66" height="38" rx="7" fill="#8FB5BA"/><text x="823" y="486" text-anchor="middle" font-family="Arial,sans-serif" font-size="17" font-weight="700" fill="#0E3455">3</text><rect x="878" y="460" width="66" height="38" rx="7" fill="#8FB5BA"/><text x="911" y="486" text-anchor="middle" font-family="Arial,sans-serif" font-size="17" font-weight="700" fill="#0E3455">3</text><rect x="966" y="460" width="66" height="38" rx="7" fill="#4D8D82"/><text x="999" y="486" text-anchor="middle" font-family="Arial,sans-serif" font-size="17" font-weight="700" fill="#FFFFFF">4</text><text x="45" y="543" font-family="Arial,sans-serif" font-size="17" fill="#0E3455">8. logixPRO</text><rect x="350" y="512" width="66" height="38" rx="7" fill="#1E6E5C"/><text x="383" y="538" text-anchor="middle" font-family="Arial,sans-serif" font-size="17" font-weight="700" fill="#FFFFFF">5</text><rect x="438" y="512" width="66" height="38" rx="7" fill="#D9E4E8"/><text x="471" y="538" text-anchor="middle" font-family="Arial,sans-serif" font-size="17" font-weight="700" fill="#0E3455">1</text><rect x="526" y="512" width="66" height="38" rx="7" fill="#4D8D82"/><text x="559" y="538" text-anchor="middle" font-family="Arial,sans-serif" font-size="17" font-weight="700" fill="#FFFFFF">4</text><rect x="614" y="512" width="66" height="38" rx="7" fill="#BBD0D7"/><text x="647" y="538" text-anchor="middle" font-family="Arial,sans-serif" font-size="17" font-weight="700" fill="#0E3455">2</text><rect x="702" y="512" width="66" height="38" rx="7" fill="#1E6E5C"/><text x="735" y="538" text-anchor="middle" font-family="Arial,sans-serif" font-size="17" font-weight="700" fill="#FFFFFF">5</text><rect x="790" y="512" width="66" height="38" rx="7" fill="#8FB5BA"/><text x="823" y="538" text-anchor="middle" font-family="Arial,sans-serif" font-size="17" font-weight="700" fill="#0E3455">3</text><rect x="878" y="512" width="66" height="38" rx="7" fill="#1E6E5C"/><text x="911" y="538" text-anchor="middle" font-family="Arial,sans-serif" font-size="17" font-weight="700" fill="#FFFFFF">5</text><rect x="966" y="512" width="66" height="38" rx="7" fill="#1E6E5C"/><text x="999" y="538" text-anchor="middle" font-family="Arial,sans-serif" font-size="17" font-weight="700" fill="#FFFFFF">5</text><text x="45" y="595" font-family="Arial,sans-serif" font-size="17" fill="#0E3455">9. FullBox</text><rect x="350" y="564" width="66" height="38" rx="7" fill="#BBD0D7"/><text x="383" y="590" text-anchor="middle" font-family="Arial,sans-serif" font-size="17" font-weight="700" fill="#0E3455">2</text><rect x="438" y="564" width="66" height="38" rx="7" fill="#D9E4E8"/><text x="471" y="590" text-anchor="middle" font-family="Arial,sans-serif" font-size="17" font-weight="700" fill="#0E3455">1</text><rect x="526" y="564" width="66" height="38" rx="7" fill="#8FB5BA"/><text x="559" y="590" text-anchor="middle" font-family="Arial,sans-serif" font-size="17" font-weight="700" fill="#0E3455">3</text><rect x="614" y="564" width="66" height="38" rx="7" fill="#4D8D82"/><text x="647" y="590" text-anchor="middle" font-family="Arial,sans-serif" font-size="17" font-weight="700" fill="#FFFFFF">4</text><rect x="702" y="564" width="66" height="38" rx="7" fill="#1E6E5C"/><text x="735" y="590" text-anchor="middle" font-family="Arial,sans-serif" font-size="17" font-weight="700" fill="#FFFFFF">5</text><rect x="790" y="564" width="66" height="38" rx="7" fill="#1E6E5C"/><text x="823" y="590" text-anchor="middle" font-family="Arial,sans-serif" font-size="17" font-weight="700" fill="#FFFFFF">5</text><rect x="878" y="564" width="66" height="38" rx="7" fill="#1E6E5C"/><text x="911" y="590" text-anchor="middle" font-family="Arial,sans-serif" font-size="17" font-weight="700" fill="#FFFFFF">5</text><rect x="966" y="564" width="66" height="38" rx="7" fill="#4D8D82"/><text x="999" y="590" text-anchor="middle" font-family="Arial,sans-serif" font-size="17" font-weight="700" fill="#FFFFFF">4</text><text x="45" y="647" font-family="Arial,sans-serif" font-size="17" fill="#0E3455">10. E-Fulfillment</text><rect x="350" y="616" width="66" height="38" rx="7" fill="#BBD0D7"/><text x="383" y="642" text-anchor="middle" font-family="Arial,sans-serif" font-size="17" font-weight="700" fill="#0E3455">2</text><rect x="438" y="616" width="66" height="38" rx="7" fill="#D9E4E8"/><text x="471" y="642" text-anchor="middle" font-family="Arial,sans-serif" font-size="17" font-weight="700" fill="#0E3455">1</text><rect x="526" y="616" width="66" height="38" rx="7" fill="#8FB5BA"/><text x="559" y="642" text-anchor="middle" font-family="Arial,sans-serif" font-size="17" font-weight="700" fill="#0E3455">3</text><rect x="614" y="616" width="66" height="38" rx="7" fill="#8FB5BA"/><text x="647" y="642" text-anchor="middle" font-family="Arial,sans-serif" font-size="17" font-weight="700" fill="#0E3455">3</text><rect x="702" y="616" width="66" height="38" rx="7" fill="#1E6E5C"/><text x="735" y="642" text-anchor="middle" font-family="Arial,sans-serif" font-size="17" font-weight="700" fill="#FFFFFF">5</text><rect x="790" y="616" width="66" height="38" rx="7" fill="#1E6E5C"/><text x="823" y="642" text-anchor="middle" font-family="Arial,sans-serif" font-size="17" font-weight="700" fill="#FFFFFF">5</text><rect x="878" y="616" width="66" height="38" rx="7" fill="#1E6E5C"/><text x="911" y="642" text-anchor="middle" font-family="Arial,sans-serif" font-size="17" font-weight="700" fill="#FFFFFF">5</text><rect x="966" y="616" width="66" height="38" rx="7" fill="#4D8D82"/><text x="999" y="642" text-anchor="middle" font-family="Arial,sans-serif" font-size="17" font-weight="700" fill="#FFFFFF">4</text><text x="45" y="700" font-family="Arial,sans-serif" font-size="15" fill="#5A7183">C1 категория · C2 кейс · C3 тара/протечки · C4 упаковка · C5 маркировка · C6 FBO/FBS · C7 WMS/сроки · C8 условия</text></svg>